1.8Hz3min_grf.mot
version=1
nRows=15
nColumns 19
inDegrees=yes
endheader
time	1_ground_force_vx	1_ground_force_vy	1_ground_force_vz	1_ground_force_px	1_ground_force_py	1_ground_force_pz	1_ground_torque_x	1_ground_torque_y	1_ground_torque_z	2_ground_force_vx	2_ground_force_vy	2_ground_force_vz	2_ground_force_px	2_ground_force_py	2_ground_force_pz	2_ground_torque_x	2_ground_torque_y	2_ground_torque_z
            2.502500	           -9.344019	         1213.841115	         -105.471411	           -0.199119	            0.006281	           -0.417301	           -0.088953	           11.555474	           -1.004062	          -45.070815	         1183.114589	          128.553503	           -0.155527	            0.005850	           -0.677446	            0.310544	           -8.151816	           -0.885751
            2.503000	           -9.664555	         1210.596603	         -105.576233	           -0.199015	            0.006281	           -0.417324	           -0.092750	           11.618002	           -1.013207	          -45.346498	         1181.639611	          128.783000	           -0.155419	            0.005852	           -0.677807	            0.310510	           -8.091265	           -0.881840
            2.503500	           -9.802648	         1208.074688	         -105.999412	           -0.198817	            0.006281	           -0.417289	           -0.092749	           11.430335	           -1.002925	          -45.796322	         1176.481234	          128.905593	           -0.155268	            0.005851	           -0.677519	            0.315656	           -8.109022	           -0.888496
            2.504000	           -9.985658	         1206.091761	         -106.007459	           -0.198698	            0.006280	           -0.417089	           -0.093378	           11.278376	           -0.991294	          -46.020502	         1173.717380	          129.130470	           -0.155064	            0.005852	           -0.677676	            0.319877	           -8.158217	           -0.897554
            2.504500	          -10.077842	         1203.209262	         -106.432314	           -0.198468	            0.006279	           -0.416993	           -0.093162	           11.122764	           -0.983887	          -46.479192	         1170.954612	          128.745388	           -0.155002	            0.005853	           -0.677917	            0.320676	           -8.078810	           -0.888258
            2.505000	          -10.352960	         1201.046929	         -106.624330	           -0.198327	            0.006278	           -0.416746	           -0.094766	           10.993858	           -0.975992	          -47.120972	         1167.083767	          129.107293	           -0.154857	            0.005854	           -0.677933	            0.318273	           -7.882940	           -0.872041
            2.505500	          -10.078155	         1197.443119	         -107.007320	           -0.198105	            0.006279	           -0.416806	           -0.093280	           11.083188	           -0.990429	          -47.202061	         1163.584862	          129.047929	           -0.154739	            0.005854	           -0.677949	            0.318382	           -7.848477	           -0.870439
            2.506000	          -10.628559	         1195.281127	         -107.290357	           -0.197907	            0.006278	           -0.416610	           -0.097660	           10.982783	           -0.985832	          -47.656689	         1159.716702	          128.846617	           -0.154400	            0.005856	           -0.678026	            0.321629	           -7.826772	           -0.869568
            2.506500	          -10.719653	         1192.036266	         -107.304043	           -0.197670	            0.006278	           -0.416578	           -0.098645	           10.969417	           -0.987439	          -47.925760	         1156.400530	          128.975687	           -0.154334	            0.005857	           -0.678112	            0.325834	           -7.862047	           -0.876870
            2.507000	          -10.628561	         1188.433011	         -107.824150	           -0.197486	            0.006278	           -0.416564	           -0.096649	           10.806798	           -0.980479	          -48.339477	         1154.189654	          128.874125	           -0.154112	            0.005858	           -0.678265	            0.332290	           -7.933997	           -0.885892
            2.507500	          -10.719996	         1185.188984	         -107.975406	           -0.197359	            0.006277	           -0.416472	           -0.095607	           10.570180	           -0.962985	          -48.464033	         1149.769191	          128.952272	           -0.153978	            0.005859	           -0.678321	            0.331801	           -7.871710	           -0.882851
            2.508000	          -11.132350	         1182.665395	         -108.076909	           -0.197168	            0.006277	           -0.416297	           -0.097435	           10.351174	           -0.945934	          -48.921298	         1146.637427	          128.800524	           -0.153689	            0.005860	           -0.678437	            0.332299	           -7.788556	           -0.874880
            2.508500	          -10.674155	         1178.340876	         -108.509297	           -0.196658	            0.006277	           -0.416361	           -0.094106	           10.388518	           -0.956642	          -49.190513	         1143.322427	          128.601104	           -0.153616	            0.005860	           -0.678480	            0.331517	           -7.705355	           -0.866700
            2.509000	          -10.949291	         1176.899288	         -108.652369	           -0.196613	            0.006275	           -0.415991	           -0.095663	           10.282432	           -0.949283	          -49.595487	         1138.716702	          128.725634	           -0.153368	            0.005861	           -0.678314	            0.332643	           -7.637502	           -0.863377
            2.509500	          -10.810843	         1173.113311	         -108.577239	           -0.196399	            0.006275	           -0.415995	           -0.095621	           10.376081	           -0.960356	          -49.819872	         1135.954521	          128.481245	           -0.153188	            0.005862	           -0.678594	            0.336660	           -7.676267	           -0.868218
